<?xml version="1.0" encoding="UTF-8" standalone="no"?>
<!-- Created with Inkscape (http://www.inkscape.org/) -->

<svg
   version="1.1"
   id="svg1"
   width="300"
   height="300"
   viewBox="0 0 300 300"
   sodipodi:docname="moon.svg"
   inkscape:version="1.4.2 (ebf0e940d0, 2025-05-08)"
   xmlns:inkscape="http://www.inkscape.org/namespaces/inkscape"
   xmlns:sodipodi="http://sodipodi.sourceforge.net/DTD/sodipodi-0.dtd"
   xmlns="http://www.w3.org/2000/svg"
   xmlns:svg="http://www.w3.org/2000/svg">
  <sodipodi:namedview
     id="namedview1"
     pagecolor="#ffffff"
     bordercolor="#000000"
     borderopacity="0.25"
     inkscape:showpageshadow="2"
     inkscape:pageopacity="0.0"
     inkscape:pagecheckerboard="0"
     inkscape:deskcolor="#d1d1d1"
     inkscape:zoom="2.5259999"
     inkscape:cx="126.88045"
     inkscape:cy="129.45369"
     inkscape:window-width="3491"
     inkscape:window-height="1895"
     inkscape:window-x="0"
     inkscape:window-y="0"
     inkscape:window-maximized="1"
     inkscape:current-layer="svg1" />
  <defs
     id="defs1">
    <clipPath
       clipPathUnits="userSpaceOnUse"
       id="clipPath169">
      <path
         d="M 0,500 H 500 V 0 H 0 Z"
         transform="translate(-274.0591,-202.11701)"
         id="path169" />
    </clipPath>
    <clipPath
       clipPathUnits="userSpaceOnUse"
       id="clipPath171">
      <path
         d="M 0,500 H 500 V 0 H 0 Z"
         transform="translate(-290.32531,-189.684)"
         id="path171" />
    </clipPath>
    <clipPath
       clipPathUnits="userSpaceOnUse"
       id="clipPath173">
      <path
         d="M 0,500 H 500 V 0 H 0 Z"
         transform="translate(-281.70301,-187.34)"
         id="path173" />
    </clipPath>
    <clipPath
       clipPathUnits="userSpaceOnUse"
       id="clipPath175">
      <path
         d="M 0,500 H 500 V 0 H 0 Z"
         transform="translate(-253.33581,-186.4269)"
         id="path175" />
    </clipPath>
    <clipPath
       clipPathUnits="userSpaceOnUse"
       id="clipPath177">
      <path
         d="M 0,500 H 500 V 0 H 0 Z"
         transform="translate(-185.7547,-271.67241)"
         id="path177" />
    </clipPath>
    <clipPath
       clipPathUnits="userSpaceOnUse"
       id="clipPath179">
      <path
         d="M 0,500 H 500 V 0 H 0 Z"
         transform="translate(-187.5174,-283.29581)"
         id="path179" />
    </clipPath>
    <clipPath
       clipPathUnits="userSpaceOnUse"
       id="clipPath181">
      <path
         d="M 0,500 H 500 V 0 H 0 Z"
         transform="translate(-198.3312,-308.81341)"
         id="path181" />
    </clipPath>
    <clipPath
       clipPathUnits="userSpaceOnUse"
       id="clipPath183">
      <path
         d="M 0,500 H 500 V 0 H 0 Z"
         transform="translate(-260.36461,-344.97311)"
         id="path183" />
    </clipPath>
    <clipPath
       clipPathUnits="userSpaceOnUse"
       id="clipPath185">
      <path
         d="M 0,500 H 500 V 0 H 0 Z"
         transform="translate(-327.37991,-203.59431)"
         id="path185" />
    </clipPath>
    <clipPath
       clipPathUnits="userSpaceOnUse"
       id="clipPath187">
      <path
         d="M 0,500 H 500 V 0 H 0 Z"
         transform="translate(-319.21641,-194.4686)"
         id="path187" />
    </clipPath>
    <clipPath
       clipPathUnits="userSpaceOnUse"
       id="clipPath189">
      <path
         d="M 0,500 H 500 V 0 H 0 Z"
         transform="translate(-313.58511,-189.4469)"
         id="path189" />
    </clipPath>
    <clipPath
       clipPathUnits="userSpaceOnUse"
       id="clipPath191">
      <path
         d="M 0,500 H 500 V 0 H 0 Z"
         transform="translate(-277.8418,-171.82661)"
         id="path191" />
    </clipPath>
    <clipPath
       clipPathUnits="userSpaceOnUse"
       id="clipPath193">
      <path
         d="M 0,500 H 500 V 0 H 0 Z"
         transform="translate(-180.7831,-214.87731)"
         id="path193" />
    </clipPath>
    <clipPath
       clipPathUnits="userSpaceOnUse"
       id="clipPath195">
      <path
         d="M 0,500 H 500 V 0 H 0 Z"
         transform="translate(-198.2679,-322.64081)"
         id="path195" />
    </clipPath>
    <clipPath
       clipPathUnits="userSpaceOnUse"
       id="clipPath197">
      <path
         d="M 0,500 H 500 V 0 H 0 Z"
         transform="translate(-212.72601,-333.31091)"
         id="path197" />
    </clipPath>
    <clipPath
       clipPathUnits="userSpaceOnUse"
       id="clipPath199">
      <path
         d="M 0,500 H 500 V 0 H 0 Z"
         transform="translate(-263.35951,-345.57311)"
         id="path199" />
    </clipPath>
    <clipPath
       clipPathUnits="userSpaceOnUse"
       id="clipPath201">
      <path
         d="M 0,500 H 500 V 0 H 0 Z"
         transform="translate(-282.4282,-264.23271)"
         id="path201" />
    </clipPath>
    <clipPath
       clipPathUnits="userSpaceOnUse"
       id="clipPath203">
      <path
         d="M 0,500 H 500 V 0 H 0 Z"
         transform="translate(-273.91171,-283.90551)"
         id="path203" />
    </clipPath>
    <clipPath
       clipPathUnits="userSpaceOnUse"
       id="clipPath205">
      <path
         d="M 0,500 H 500 V 0 H 0 Z"
         transform="translate(-265.78711,-279.07751)"
         id="path205" />
    </clipPath>
    <clipPath
       clipPathUnits="userSpaceOnUse"
       id="clipPath207">
      <path
         d="M 0,500 H 500 V 0 H 0 Z"
         transform="translate(-265.8409,-270.13611)"
         id="path207" />
    </clipPath>
    <clipPath
       clipPathUnits="userSpaceOnUse"
       id="clipPath209">
      <path
         d="M 0,500 H 500 V 0 H 0 Z"
         transform="translate(-289.16901,-247.1613)"
         id="path209" />
    </clipPath>
    <clipPath
       clipPathUnits="userSpaceOnUse"
       id="clipPath211">
      <path
         d="M 0,500 H 500 V 0 H 0 Z"
         transform="translate(-257.91171,-304.65551)"
         id="path211" />
    </clipPath>
    <clipPath
       clipPathUnits="userSpaceOnUse"
       id="clipPath213">
      <path
         d="M 0,500 H 500 V 0 H 0 Z"
         transform="translate(-305.17901,-272.9787)"
         id="path213" />
    </clipPath>
    <clipPath
       clipPathUnits="userSpaceOnUse"
       id="clipPath215">
      <path
         d="M 0,500 H 500 V 0 H 0 Z"
         transform="translate(-239.77,-275.04401)"
         id="path215" />
    </clipPath>
    <clipPath
       clipPathUnits="userSpaceOnUse"
       id="clipPath217">
      <path
         d="M 0,500 H 500 V 0 H 0 Z"
         transform="translate(-290.26501,-300.27841)"
         id="path217" />
    </clipPath>
    <clipPath
       clipPathUnits="userSpaceOnUse"
       id="clipPath219">
      <path
         d="M 0,500 H 500 V 0 H 0 Z"
         transform="translate(-256.98751,-243.9294)"
         id="path219" />
    </clipPath>
  </defs>
  <g
     id="layer-MC1"
     transform="matrix(1.1718689,0,0,1.1718689,-242.1864,-239.05969)">
    <path
       id="path168"
       d="m 0,0 c -39.733,0 -71.942,32.21 -71.942,71.942 0,36.089 26.573,65.968 61.219,71.146 -4.038,0.524 -8.155,0.796 -12.335,0.796 -52.468,0 -95.001,-42.533 -95.001,-95 0,-52.468 42.533,-95.001 95.001,-95.001 52.467,0 95,42.533 95,95.001 0,4.18 -0.273,8.297 -0.796,12.335 C 65.968,26.573 36.088,0 0,0 Z"
       style="fill:none;stroke:#ffdca4;stroke-width:2;stroke-linecap:round;stroke-linejoin:round;stroke-miterlimit:10;stroke-dasharray:none;stroke-opacity:1"
       transform="matrix(1.3333333,0,0,-1.3333333,365.41213,397.17733)"
       clip-path="url(#clipPath169)" />
    <path
       id="path170"
       d="m 0,0 c 21.174,7.049 38.792,22.961 47.89,43.343 3.727,8.348 6.046,17.336 6.7,26.46"
       style="fill:none;stroke:#ffdca4;stroke-width:1;stroke-linecap:round;stroke-linejoin:round;stroke-miterlimit:10;stroke-dasharray:none;stroke-opacity:1"
       transform="matrix(1.3333333,0,0,-1.3333333,387.1004,413.75467)"
       clip-path="url(#clipPath171)" />
    <path
       id="path172"
       d="M 0,0 C 1.515,0.322 3.02,0.688 4.513,1.098"
       style="fill:none;stroke:#ffdca4;stroke-width:1;stroke-linecap:round;stroke-linejoin:round;stroke-miterlimit:10;stroke-dasharray:none;stroke-opacity:1"
       transform="matrix(1.3333333,0,0,-1.3333333,375.604,416.88)"
       clip-path="url(#clipPath173)" />
    <path
       id="path174"
       d="M 0,0 C 8.016,-1.204 16.214,-1.13 24.217,0.142"
       style="fill:none;stroke:#ffdca4;stroke-width:1;stroke-linecap:round;stroke-linejoin:round;stroke-miterlimit:10;stroke-dasharray:none;stroke-opacity:1"
       transform="matrix(1.3333333,0,0,-1.3333333,337.78107,418.09747)"
       clip-path="url(#clipPath175)" />
    <path
       id="path176"
       d="M 0,0 C -1.782,-23.33 6.945,-47.16 23.778,-63.487 31.87,-71.337 41.65,-77.418 52.23,-81.299"
       style="fill:none;stroke:#ffdca4;stroke-width:1;stroke-linecap:round;stroke-linejoin:round;stroke-miterlimit:10;stroke-dasharray:none;stroke-opacity:1"
       transform="matrix(1.3333333,0,0,-1.3333333,247.67293,304.4368)"
       clip-path="url(#clipPath177)" />
    <path
       id="path178"
       d="M 0,0 C -0.558,-2.435 -1,-4.898 -1.323,-7.375"
       style="fill:none;stroke:#ffdca4;stroke-width:1;stroke-linecap:round;stroke-linejoin:round;stroke-miterlimit:10;stroke-dasharray:none;stroke-opacity:1"
       transform="matrix(1.3333333,0,0,-1.3333333,250.0232,288.93893)"
       clip-path="url(#clipPath179)" />
    <path
       id="path180"
       d="M 0,0 C -3.264,-5.009 -5.946,-10.393 -7.997,-16.008"
       style="fill:none;stroke:#ffdca4;stroke-width:1;stroke-linecap:round;stroke-linejoin:round;stroke-miterlimit:10;stroke-dasharray:none;stroke-opacity:1"
       transform="matrix(1.3333333,0,0,-1.3333333,264.4416,254.91547)"
       clip-path="url(#clipPath181)" />
    <path
       id="path182"
       d="m 0,0 c -19.776,-1.2 -38.665,-9.922 -52.446,-24.148 -2.558,-2.641 -4.934,-5.457 -7.107,-8.423"
       style="fill:none;stroke:#ffdca4;stroke-width:1;stroke-linecap:round;stroke-linejoin:round;stroke-miterlimit:10;stroke-dasharray:none;stroke-opacity:1"
       transform="matrix(1.3333333,0,0,-1.3333333,347.1528,206.70253)"
       clip-path="url(#clipPath183)" />
    <path
       id="path184"
       d="M 0,0 C 11.951,15.382 18.495,34.548 18.495,54.024"
       style="fill:none;stroke:#ffdca4;stroke-width:1;stroke-linecap:round;stroke-linejoin:round;stroke-miterlimit:10;stroke-dasharray:none;stroke-opacity:1"
       transform="matrix(1.3333333,0,0,-1.3333333,436.50653,395.2076)"
       clip-path="url(#clipPath185)" />
    <path
       id="path186"
       d="M 0,0 C 1.692,1.645 3.316,3.358 4.87,5.133"
       style="fill:none;stroke:#ffdca4;stroke-width:1;stroke-linecap:round;stroke-linejoin:round;stroke-miterlimit:10;stroke-dasharray:none;stroke-opacity:1"
       transform="matrix(1.3333333,0,0,-1.3333333,425.62187,407.3752)"
       clip-path="url(#clipPath187)" />
    <path
       id="path188"
       d="M 0,0 C 0.572,0.467 1.137,0.942 1.697,1.423"
       style="fill:none;stroke:#ffdca4;stroke-width:1;stroke-linecap:round;stroke-linejoin:round;stroke-miterlimit:10;stroke-dasharray:none;stroke-opacity:1"
       transform="matrix(1.3333333,0,0,-1.3333333,418.11347,414.0708)"
       clip-path="url(#clipPath189)" />
    <path
       id="path190"
       d="M 0,0 C 11.367,2.678 22.19,7.622 31.65,14.47"
       style="fill:none;stroke:#ffdca4;stroke-width:1;stroke-linecap:round;stroke-linejoin:round;stroke-miterlimit:10;stroke-dasharray:none;stroke-opacity:1"
       transform="matrix(1.3333333,0,0,-1.3333333,370.45573,437.56453)"
       clip-path="url(#clipPath191)" />
    <path
       id="path192"
       d="m 0,0 c 11.645,-21.077 31.721,-36.453 55.003,-42.509 12.144,-3.16 24.905,-3.724 37.265,-1.531"
       style="fill:none;stroke:#ffdca4;stroke-width:1;stroke-linecap:round;stroke-linejoin:round;stroke-miterlimit:10;stroke-dasharray:none;stroke-opacity:1"
       transform="matrix(1.3333333,0,0,-1.3333333,241.04413,380.1636)"
       clip-path="url(#clipPath193)" />
    <path
       id="path194"
       d="m 0,0 c -17.36,-15.877 -27.88,-38.914 -28.598,-62.42 -0.434,-14.213 2.763,-28.477 8.986,-41.247"
       style="fill:none;stroke:#ffdca4;stroke-width:1;stroke-linecap:round;stroke-linejoin:round;stroke-miterlimit:10;stroke-dasharray:none;stroke-opacity:1"
       transform="matrix(1.3333333,0,0,-1.3333333,264.3572,236.47893)"
       clip-path="url(#clipPath195)" />
    <path
       id="path196"
       d="M 0,0 C -1.735,-1.022 -3.435,-2.104 -5.095,-3.243"
       style="fill:none;stroke:#ffdca4;stroke-width:1;stroke-linecap:round;stroke-linejoin:round;stroke-miterlimit:10;stroke-dasharray:none;stroke-opacity:1"
       transform="matrix(1.3333333,0,0,-1.3333333,283.63467,222.25213)"
       clip-path="url(#clipPath197)" />
    <path
       id="path198"
       d="M 0,0 C -15.966,1.003 -32.144,-2.543 -46.338,-9.888"
       style="fill:none;stroke:#ffdca4;stroke-width:1;stroke-linecap:round;stroke-linejoin:round;stroke-miterlimit:10;stroke-dasharray:none;stroke-opacity:1"
       transform="matrix(1.3333333,0,0,-1.3333333,351.146,205.90253)"
       clip-path="url(#clipPath199)" />
    <path
       id="path200"
       d="M 0,0 21.592,-7.343 5.284,7.184 17.053,9.14 4.58,12.129 21.735,27.157 1,20.297 l 4.191,11.17 -8.825,-9.307 -4.437,22.371 -4.427,-21.387 -7.578,9.214 3.648,-12.296 -21.592,7.342 16.308,-14.526 -11.769,-1.957 12.473,-2.988 -17.155,-15.028 20.735,6.86 -4.191,-11.171 8.825,9.308 4.437,-22.371 4.427,21.387 7.578,-9.214 z"
       style="fill:none;stroke:#ffdca4;stroke-width:2;stroke-linecap:round;stroke-linejoin:round;stroke-miterlimit:10;stroke-dasharray:none;stroke-opacity:1"
       transform="matrix(1.3333333,0,0,-1.3333333,376.57093,314.3564)"
       clip-path="url(#clipPath201)" />
    <path
       id="path202"
       d="M 0,0 V -18.5"
       style="fill:none;stroke:#ffdca4;stroke-width:1;stroke-linecap:round;stroke-linejoin:round;stroke-miterlimit:10;stroke-dasharray:none;stroke-opacity:1"
       transform="matrix(1.3333333,0,0,-1.3333333,365.2156,288.126)"
       clip-path="url(#clipPath203)" />
    <path
       id="path204"
       d="M 0,0 16.249,-8.844"
       style="fill:none;stroke:#ffdca4;stroke-width:1;stroke-linecap:round;stroke-linejoin:round;stroke-miterlimit:10;stroke-dasharray:none;stroke-opacity:1"
       transform="matrix(1.3333333,0,0,-1.3333333,354.3828,294.56333)"
       clip-path="url(#clipPath205)" />
    <path
       id="path206"
       d="M 0,0 16.142,9.039"
       style="fill:none;stroke:#ffdca4;stroke-width:1;stroke-linecap:round;stroke-linejoin:round;stroke-miterlimit:10;stroke-dasharray:none;stroke-opacity:1"
       transform="matrix(1.3333333,0,0,-1.3333333,354.45453,306.4852)"
       clip-path="url(#clipPath207)" />
    <path
       id="path208"
       d="M 0,0 2.243,-3.756"
       style="fill:none;stroke:#ffdca4;stroke-width:1;stroke-linecap:round;stroke-linejoin:round;stroke-miterlimit:10;stroke-dasharray:none;stroke-opacity:1"
       transform="matrix(1.3333333,0,0,-1.3333333,385.55867,337.11827)"
       clip-path="url(#clipPath209)" />
    <path
       id="path210"
       d="M 0,0 2.186,-3.65"
       style="fill:none;stroke:#ffdca4;stroke-width:1;stroke-linecap:round;stroke-linejoin:round;stroke-miterlimit:10;stroke-dasharray:none;stroke-opacity:1"
       transform="matrix(1.3333333,0,0,-1.3333333,343.88227,260.45933)"
       clip-path="url(#clipPath211)" />
    <path
       id="path212"
       d="M 0,0 4.374,0.038"
       style="fill:none;stroke:#ffdca4;stroke-width:1;stroke-linecap:round;stroke-linejoin:round;stroke-miterlimit:10;stroke-dasharray:none;stroke-opacity:1"
       transform="matrix(1.3333333,0,0,-1.3333333,406.90533,302.69507)"
       clip-path="url(#clipPath213)" />
    <path
       id="path214"
       d="M 0,0 4.254,0.043"
       style="fill:none;stroke:#ffdca4;stroke-width:1;stroke-linecap:round;stroke-linejoin:round;stroke-miterlimit:10;stroke-dasharray:none;stroke-opacity:1"
       transform="matrix(1.3333333,0,0,-1.3333333,319.69333,299.94133)"
       clip-path="url(#clipPath215)" />
    <path
       id="path216"
       d="M 0,0 2.071,3.853"
       style="fill:none;stroke:#ffdca4;stroke-width:1;stroke-linecap:round;stroke-linejoin:round;stroke-miterlimit:10;stroke-dasharray:none;stroke-opacity:1"
       transform="matrix(1.3333333,0,0,-1.3333333,387.02,266.29547)"
       clip-path="url(#clipPath217)" />
    <path
       id="path218"
       d="M 0,0 2.009,3.75"
       style="fill:none;stroke:#ffdca4;stroke-width:1;stroke-linecap:round;stroke-linejoin:round;stroke-miterlimit:10;stroke-dasharray:none;stroke-opacity:1"
       transform="matrix(1.3333333,0,0,-1.3333333,342.65,341.42747)"
       clip-path="url(#clipPath219)" />
  </g>
</svg>
